<svg width="320" height="320" viewBox="0 0 320 320" fill="none" xmlns="http://www.w3.org/2000/svg">
  <defs>
    <linearGradient id="bg" x1="42" y1="30" x2="284" y2="292" gradientUnits="userSpaceOnUse">
      <stop stop-color="#3CF0FF" />
      <stop offset="0.45" stop-color="#14B5FF" />
      <stop offset="1" stop-color="#0B2E80" />
    </linearGradient>
    <radialGradient id="halo" cx="0" cy="0" r="1" gradientUnits="userSpaceOnUse" gradientTransform="translate(96 82) rotate(45) scale(180 200)">
      <stop stop-color="#FFFFFF" stop-opacity="0.55" />
      <stop offset="1" stop-color="#FFFFFF" stop-opacity="0" />
    </radialGradient>
    <linearGradient id="panel" x1="84" y1="72" x2="240" y2="260" gradientUnits="userSpaceOnUse">
      <stop stop-color="#FFFFFF" stop-opacity="0.92" />
      <stop offset="1" stop-color="#DFF6FF" stop-opacity="0.85" />
    </linearGradient>
    <linearGradient id="pin" x1="112" y1="94" x2="220" y2="228" gradientUnits="userSpaceOnUse">
      <stop stop-color="#00DAFF" />
      <stop offset="1" stop-color="#0A2B76" />
    </linearGradient>
    <linearGradient id="bowl" x1="120" y1="176" x2="220" y2="228" gradientUnits="userSpaceOnUse">
      <stop stop-color="#FFFFFF" stop-opacity="0.94" />
      <stop offset="1" stop-color="#C7E8FF" stop-opacity="0.94" />
    </linearGradient>
    <filter id="shadow" x="-40" y="-40" width="400" height="400" color-interpolation-filters="sRGB" filterUnits="userSpaceOnUse">
      <feGaussianBlur stdDeviation="22" result="blur" />
    </filter>
  </defs>

  <rect width="320" height="320" rx="76" fill="url(#bg)" />
  <rect x="8" y="8" width="304" height="304" rx="70" fill="url(#halo)" />
  <rect x="14" y="14" width="292" height="292" rx="66" stroke="#8CEBFF" stroke-opacity="0.35" stroke-width="4" />

  <g filter="url(#shadow)">
    <circle cx="76" cy="62" r="70" fill="#FFFFFF" fill-opacity="0.32" />
    <circle cx="260" cy="246" r="90" fill="#0B1C4A" fill-opacity="0.42" />
    <circle cx="240" cy="96" r="60" fill="#00E2FF" fill-opacity="0.52" />
  </g>

  <rect x="62" y="56" width="196" height="208" rx="56" fill="url(#panel)" stroke="#8AE7FF" stroke-opacity="0.7" stroke-width="2" />
  <rect x="88" y="94" width="144" height="12" rx="6" fill="#0A2E80" fill-opacity="0.28" />
  <rect x="88" y="216" width="144" height="12" rx="6" fill="#0A2E80" fill-opacity="0.12" />

  <g transform="translate(0 -4)">
    <path d="M160 88c-34 0-62 26-62 60 0 46 62 124 62 124s62-78 62-124c0-34-28-60-62-60z" fill="url(#pin)" />
    <circle cx="160" cy="150" r="18" fill="#E6FAFF" />
    <path d="M126 176h108v8c0 28-36 48-78 48s-78-20-78-48v-8h48z" fill="url(#bowl)" />
    <path d="M134 176c4-18 18-30 38-30s34 12 38 30" stroke="#0A2E80" stroke-width="6" stroke-linecap="round" stroke-opacity="0.4" />
    <path d="M148 162c0-10 12-18 12-18" stroke="#0A2E80" stroke-width="5" stroke-linecap="round" stroke-opacity="0.45" />
    <path d="M180 154s4 6 4 14" stroke="#0A2E80" stroke-width="5" stroke-linecap="round" stroke-opacity="0.45" />
    <rect x="144" y="190" width="32" height="12" rx="6" fill="#0A2E80" fill-opacity="0.18" />
    <rect x="190" y="190" width="22" height="12" rx="6" fill="#0A2E80" fill-opacity="0.14" />
  </g>

  <g transform="translate(98 52)">
    <circle cx="0" cy="0" r="10" fill="#FFFFFF" fill-opacity="0.75" />
    <circle cx="30" cy="-4" r="8" fill="#B0EEFF" fill-opacity="0.8" />
    <circle cx="58" cy="4" r="6" fill="#00214E" fill-opacity="0.3" />
  </g>

  <text x="88" y="256" fill="#0A2E80" font-family="'Inter','Segoe UI',system-ui" font-size="30" font-weight="800" letter-spacing="0.5">Wolt Guess</text>
  <text x="88" y="282" fill="#104EA8" font-family="'Inter','Segoe UI',system-ui" font-size="18" font-weight="700" letter-spacing="0.2">Food map challenge</text>

  <g transform="translate(104 232)">
    <rect x="0" y="0" width="52" height="18" rx="9" fill="#00C6E8" opacity="0.9" />
    <rect x="62" y="0" width="52" height="18" rx="9" fill="#0A2E80" opacity="0.8" />
    <rect x="124" y="0" width="52" height="18" rx="9" fill="#FFFFFF" opacity="0.9" />
  </g>
</svg>
