<svg width="320" height="320" viewBox="0 0 320 320" fill="none" xmlns="http://www.w3.org/2000/svg">
  <defs>
    <linearGradient id="bg" x1="32" y1="24" x2="288" y2="296" gradientUnits="userSpaceOnUse">
      <stop stop-color="#0CD8FF"/>
      <stop offset="1" stop-color="#0C4DA2"/>
    </linearGradient>
    <linearGradient id="glass" x1="90" y1="86" x2="240" y2="234" gradientUnits="userSpaceOnUse">
      <stop stop-color="#FFFFFF" stop-opacity="0.8"/>
      <stop offset="1" stop-color="#FFFFFF" stop-opacity="0.45"/>
    </linearGradient>
    <filter id="blur" x="-40" y="-40" width="400" height="400" filterUnits="userSpaceOnUse" color-interpolation-filters="sRGB">
      <feGaussianBlur stdDeviation="24" result="blur" />
    </filter>
  </defs>
  <rect x="0" y="0" width="320" height="320" rx="64" fill="url(#bg)" />

  <g filter="url(#blur)">
    <circle cx="92" cy="74" r="64" fill="#FFFFFF" fill-opacity="0.32" />
    <circle cx="248" cy="222" r="82" fill="#00E2FF" fill-opacity="0.42" />
  </g>

  <rect x="62" y="58" width="196" height="204" rx="52" fill="url(#glass)" stroke="#FFFFFF" stroke-opacity="0.55" stroke-width="2" />
  <rect x="82" y="92" width="156" height="12" rx="6" fill="#FFFFFF" fill-opacity="0.45" />
  <rect x="82" y="214" width="156" height="12" rx="6" fill="#001F3F" fill-opacity="0.18" />

  <g fill="#FFFFFF">
    <circle cx="124" cy="66" r="12" fill-opacity="0.6" />
    <circle cx="160" cy="66" r="10" fill-opacity="0.8" />
    <circle cx="196" cy="66" r="8" fill-opacity="0.5" />
  </g>

  <text x="84" y="150" fill="#FFFFFF" font-family="'Inter', 'Segoe UI', system-ui" font-size="38" font-weight="800" letter-spacing="0.5">Wolt Quiz</text>
  <text x="72" y="190" fill="#E9FBFF" font-family="'Inter', 'Segoe UI', system-ui" font-size="22" font-weight="700" letter-spacing="0.2">Tel Aviv Flavor Challenge</text>

  <g transform="translate(90 208)">
    <rect x="0" y="0" width="56" height="22" rx="11" fill="#00C2E8" opacity="0.9" />
    <rect x="66" y="0" width="56" height="22" rx="11" fill="#FF6B35" opacity="0.9" />
    <rect x="132" y="0" width="56" height="22" rx="11" fill="#FFFFFF" opacity="0.8" />
  </g>
</svg>
