<svg width="1200" height="630" viewBox="0 0 1200 630" fill="none" xmlns="http://www.w3.org/2000/svg">
  <defs>
    <linearGradient id="bg" x1="80" y1="40" x2="1120" y2="620" gradientUnits="userSpaceOnUse">
      <stop stop-color="#00D6FF" />
      <stop offset="0.5" stop-color="#1495FF" />
      <stop offset="1" stop-color="#0B3F8F" />
    </linearGradient>
    <linearGradient id="glass" x1="360" y1="130" x2="850" y2="500" gradientUnits="userSpaceOnUse">
      <stop stop-color="#FFFFFF" stop-opacity="0.82" />
      <stop offset="1" stop-color="#FFFFFF" stop-opacity="0.55" />
    </linearGradient>
    <filter id="blur" x="-60" y="-60" width="1320" height="750" filterUnits="userSpaceOnUse" color-interpolation-filters="sRGB">
      <feGaussianBlur stdDeviation="58" />
    </filter>
    <linearGradient id="pill-a" x1="0" y1="0" x2="200" y2="54" gradientUnits="userSpaceOnUse">
      <stop stop-color="#00CFFF" />
      <stop offset="1" stop-color="#18E1FF" />
    </linearGradient>
    <linearGradient id="pill-b" x1="0" y1="0" x2="200" y2="54" gradientUnits="userSpaceOnUse">
      <stop stop-color="#FF7A59" />
      <stop offset="1" stop-color="#FF4D5A" />
    </linearGradient>
    <linearGradient id="pill-c" x1="0" y1="0" x2="200" y2="54" gradientUnits="userSpaceOnUse">
      <stop stop-color="#FFFFFF" stop-opacity="0.85" />
      <stop offset="1" stop-color="#E3F6FF" stop-opacity="0.9" />
    </linearGradient>
  </defs>

  <rect width="1200" height="630" rx="48" fill="url(#bg)" />

  <g filter="url(#blur)" opacity="0.9">
    <circle cx="220" cy="120" r="140" fill="#D6F6FF" fill-opacity="0.7" />
    <circle cx="1020" cy="520" r="200" fill="#0AF0FF" fill-opacity="0.45" />
    <circle cx="1020" cy="120" r="140" fill="#0F52BA" fill-opacity="0.38" />
  </g>

  <rect x="240" y="110" width="720" height="410" rx="64" fill="url(#glass)" stroke="#FFFFFF" stroke-opacity="0.6" stroke-width="3" />
  <rect x="270" y="150" width="660" height="20" rx="10" fill="#FFFFFF" fill-opacity="0.55" />
  <rect x="270" y="430" width="660" height="16" rx="8" fill="#01254E" fill-opacity="0.16" />

  <g transform="translate(310 210)">
    <circle cx="40" cy="38" r="14" fill="#00C2E8" />
    <circle cx="88" cy="32" r="10" fill="#0B3F8F" fill-opacity="0.85" />
    <circle cx="120" cy="46" r="8" fill="#FFFFFF" fill-opacity="0.7" />
  </g>

  <text x="310" y="310" fill="#0C214A" font-family="'Inter', 'Segoe UI', system-ui" font-size="70" font-weight="800" letter-spacing="0.4">Wolt Food Quiz</text>
  <text x="315" y="360" fill="#0B3F8F" font-family="'Inter', 'Segoe UI', system-ui" font-size="36" font-weight="700">Glassmorphic restaurant challenge</text>
  <text x="315" y="404" fill="#124877" font-family="'Inter', 'Segoe UI', system-ui" font-size="26" font-weight="600">Guess Tel Aviv's tastiest spots in style</text>

  <g transform="translate(320 430)">
    <rect x="0" y="0" width="200" height="54" rx="27" fill="url(#pill-a)" opacity="0.92" />
    <rect x="220" y="0" width="200" height="54" rx="27" fill="url(#pill-b)" opacity="0.92" />
    <rect x="440" y="0" width="200" height="54" rx="27" fill="url(#pill-c)" opacity="0.95" />
    <text x="55" y="34" fill="#FFFFFF" font-family="'Inter', 'Segoe UI', system-ui" font-size="22" font-weight="800">Play</text>
    <text x="272" y="34" fill="#FFFFFF" font-family="'Inter', 'Segoe UI', system-ui" font-size="22" font-weight="800">Guess</text>
    <text x="488" y="34" fill="#0C214A" font-family="'Inter', 'Segoe UI', system-ui" font-size="22" font-weight="800">Win</text>
  </g>

  <g transform="translate(860 170)">
    <rect x="0" y="0" width="180" height="180" rx="40" fill="#0C214A" fill-opacity="0.08" stroke="#FFFFFF" stroke-opacity="0.4" />
    <path d="M64 74c18-26 52-26 70 0" stroke="#00C2E8" stroke-width="10" stroke-linecap="round" />
    <circle cx="79" cy="62" r="10" fill="#00C2E8" />
    <circle cx="119" cy="62" r="10" fill="#00C2E8" />
    <path d="M70 110c30 16 60 16 90 0" stroke="#FF7A59" stroke-width="10" stroke-linecap="round" />
    <circle cx="90" cy="122" r="12" fill="#FF7A59" />
    <circle cx="140" cy="122" r="12" fill="#FF7A59" />
  </g>
</svg>
