<svg width="1200" height="630" viewBox="0 0 1200 630" fill="none" xmlns="http://www.w3.org/2000/svg">
  <defs>
    <linearGradient id="bg" x1="90" y1="40" x2="1100" y2="620" gradientUnits="userSpaceOnUse">
      <stop stop-color="#34E8FF" />
      <stop offset="0.45" stop-color="#12B0FF" />
      <stop offset="1" stop-color="#082B72" />
    </linearGradient>
    <radialGradient id="spotlight" cx="0" cy="0" r="1" gradientUnits="userSpaceOnUse" gradientTransform="translate(200 120) rotate(45) scale(360 320)">
      <stop stop-color="#FFFFFF" stop-opacity="0.6" />
      <stop offset="1" stop-color="#FFFFFF" stop-opacity="0" />
    </radialGradient>
    <linearGradient id="glass" x1="360" y1="140" x2="880" y2="500" gradientUnits="userSpaceOnUse">
      <stop stop-color="#FFFFFF" stop-opacity="0.9" />
      <stop offset="1" stop-color="#DFF3FF" stop-opacity="0.82" />
    </linearGradient>
    <linearGradient id="pin" x1="40" y1="30" x2="210" y2="230" gradientUnits="userSpaceOnUse">
      <stop stop-color="#00D8FF" />
      <stop offset="1" stop-color="#0A2A75" />
    </linearGradient>
    <linearGradient id="bowl" x1="60" y1="140" x2="210" y2="210" gradientUnits="userSpaceOnUse">
      <stop stop-color="#FFFFFF" stop-opacity="0.96" />
      <stop offset="1" stop-color="#C7E8FF" stop-opacity="0.96" />
    </linearGradient>
    <filter id="shadow" x="-80" y="-80" width="1360" height="790" color-interpolation-filters="sRGB" filterUnits="userSpaceOnUse">
      <feGaussianBlur stdDeviation="48" />
    </filter>
    <symbol id="logo-mark" viewBox="0 0 260 260">
      <rect x="22" y="22" width="216" height="216" rx="62" fill="url(#glass)" />
      <path d="M130 40c-40 0-74 30-74 70 0 54 74 150 74 150s74-96 74-150c0-40-34-70-74-70z" fill="url(#pin)" />
      <circle cx="130" cy="120" r="22" fill="#E6FAFF" />
      <path d="M88 150h140v10c0 34-46 58-98 58s-98-24-98-58v-10h56z" fill="url(#bowl)" />
      <path d="M98 150c6-22 22-38 44-38s38 16 44 38" stroke="#0A2E80" stroke-width="8" stroke-linecap="round" stroke-opacity="0.45" />
      <path d="M112 132c0-12 12-22 12-22" stroke="#0A2E80" stroke-width="6" stroke-linecap="round" stroke-opacity="0.45" />
      <path d="M154 124s6 8 6 18" stroke="#0A2E80" stroke-width="6" stroke-linecap="round" stroke-opacity="0.45" />
      <rect x="110" y="166" width="36" height="14" rx="7" fill="#0A2E80" fill-opacity="0.14" />
      <rect x="160" y="166" width="26" height="14" rx="7" fill="#0A2E80" fill-opacity="0.12" />
    </symbol>
  </defs>

  <rect width="1200" height="630" rx="52" fill="url(#bg)" />
  <rect x="16" y="16" width="1168" height="598" rx="46" fill="url(#spotlight)" />
  <rect x="22" y="22" width="1156" height="586" rx="42" stroke="#9CF0FF" stroke-opacity="0.42" stroke-width="4" />

  <g filter="url(#shadow)" opacity="0.95">
    <circle cx="190" cy="120" r="150" fill="#FFFFFF" fill-opacity="0.24" />
    <circle cx="1030" cy="510" r="220" fill="#0A1F58" fill-opacity="0.46" />
    <circle cx="980" cy="120" r="140" fill="#00E2FF" fill-opacity="0.4" />
  </g>

  <g transform="translate(120 120)">
    <rect x="0" y="0" width="520" height="360" rx="48" fill="url(#glass)" stroke="#A9EDFF" stroke-opacity="0.7" stroke-width="3" />
    <text x="46" y="92" fill="#0A2E80" font-family="'Inter','Segoe UI',system-ui" font-size="72" font-weight="800" letter-spacing="0.4">Wolt Guess</text>
    <text x="48" y="138" fill="#0F4EA8" font-family="'Inter','Segoe UI',system-ui" font-size="32" font-weight="700">Spot the restaurant from the dish</text>
    <text x="48" y="182" fill="#0A2E80" font-family="'Inter','Segoe UI',system-ui" font-size="24" font-weight="600">10 locations • Tel Aviv flavors • Fast rounds</text>
    <g transform="translate(40 214)">
      <rect x="0" y="0" width="150" height="50" rx="25" fill="#00C6E8" opacity="0.94" />
      <rect x="170" y="0" width="150" height="50" rx="25" fill="#0A2E80" opacity="0.9" />
      <rect x="340" y="0" width="150" height="50" rx="25" fill="#FFFFFF" opacity="0.92" />
      <text x="44" y="32" fill="#FFFFFF" font-family="'Inter','Segoe UI',system-ui" font-size="22" font-weight="800">Play</text>
      <text x="206" y="32" fill="#FFFFFF" font-family="'Inter','Segoe UI',system-ui" font-size="22" font-weight="800">Guess</text>
      <text x="374" y="32" fill="#0A2E80" font-family="'Inter','Segoe UI',system-ui" font-size="22" font-weight="800">Win</text>
    </g>
    <g transform="translate(44 290)">
      <rect x="0" y="0" width="220" height="46" rx="23" fill="#0A2E80" fill-opacity="0.12" />
      <text x="18" y="30" fill="#0A2E80" font-family="'Inter','Segoe UI',system-ui" font-size="20" font-weight="700">Polished, map-inspired UI</text>
    </g>
  </g>

  <g transform="translate(760 118)">
    <rect x="0" y="0" width="320" height="394" rx="48" fill="url(#glass)" stroke="#A9EDFF" stroke-opacity="0.7" stroke-width="3" />
    <rect x="24" y="42" width="272" height="40" rx="20" fill="#0A2E80" fill-opacity="0.14" />
    <use href="#logo-mark" x="40" y="72" width="240" height="240" />
    <g transform="translate(40 330)">
      <rect x="0" y="0" width="110" height="40" rx="20" fill="#00C6E8" opacity="0.9" />
      <rect x="130" y="0" width="110" height="40" rx="20" fill="#0A2E80" opacity="0.85" />
      <text x="28" y="26" fill="#FFFFFF" font-family="'Inter','Segoe UI',system-ui" font-size="18" font-weight="800">Quick play</text>
      <text x="152" y="26" fill="#FFFFFF" font-family="'Inter','Segoe UI',system-ui" font-size="18" font-weight="800">Shareable</text>
    </g>
  </g>

  <g transform="translate(80 66)">
    <rect x="0" y="0" width="180" height="46" rx="23" fill="#FFFFFF" fill-opacity="0.92" />
    <text x="18" y="30" fill="#0A2E80" font-family="'Inter','Segoe UI',system-ui" font-size="20" font-weight="800">Tel Aviv edition</text>
  </g>

  <g transform="translate(620 520)">
    <rect x="0" y="0" width="520" height="70" rx="28" fill="#0A2E80" fill-opacity="0.38" />
    <text x="24" y="44" fill="#E6FAFF" font-family="'Inter','Segoe UI',system-ui" font-size="26" font-weight="800">Bring your food trivia group together with Wolt Guess</text>
  </g>
</svg>
